<svg width="102" height="23" viewBox="0 0 102 23" fill="none" xmlns="http://www.w3.org/2000/svg">
<g clip-path="url(#clip0_663_19081)">
<g clip-path="url(#clip1_663_19081)">
<path d="M67.6985 16.3009C67.0256 16.0234 66.4368 15.6307 65.9383 15.1413C65.4398 14.652 65.0521 14.0536 64.7792 13.3525C64.5064 12.6576 64.3669 11.8968 64.3669 11.0867V11.0271C64.3669 10.254 64.5002 9.52206 64.7731 8.84561C65.0459 8.16916 65.4172 7.57701 65.8829 7.06916C66.3507 6.56748 66.9025 6.1686 67.5344 5.87869C67.7293 5.78822 67.9283 5.72243 68.1293 5.66075V0.5C67.0913 0.61514 66.1024 0.849533 65.1731 1.22579C63.8191 1.7686 62.66 2.51907 61.6958 3.47925C60.7316 4.43944 59.9664 5.56411 59.4145 6.85121C58.8627 8.13832 58.5898 9.52206 58.5898 10.9963V11.0559C58.5898 12.6082 58.8689 14.029 59.4392 15.3161C60.0033 16.6032 60.7808 17.7155 61.7758 18.6449C62.7708 19.5763 63.9422 20.3 65.2962 20.814C66.1886 21.1533 67.1405 21.3692 68.1416 21.4843V16.4634C67.996 16.4161 67.8442 16.3667 67.7047 16.3071L67.6985 16.3009Z" fill="white"/>
<path d="M78.2116 21.4534V11.4424H73.1875V21.4534H78.2116Z" fill="#31CBFF"/>
<path d="M78.2049 11.4363H68.1484V16.4387H78.2049V11.4363Z" fill="#31CBFF"/>
<path d="M5.68265 0.524658V21.5048H0V0.524658H5.68265Z" fill="white"/>
<path d="M26.4916 0.524658V21.5048H21.7485L14.1846 10.4822H14.0616V21.5048H8.37891V0.524658H13.204L20.6448 11.5062H20.8089V0.524658H26.4916Z" fill="white"/>
<path d="M37.2456 21.5048H29.1914V0.524658H37.1635C39.3176 0.524658 41.1783 0.942041 42.7498 1.77886C44.3212 2.61569 45.5336 3.81643 46.3891 5.38522C47.2446 6.95195 47.6713 8.82914 47.6713 11.0148C47.6713 13.2004 47.2446 15.0755 46.3932 16.6443C45.5419 18.211 44.3356 19.4138 42.7744 20.2506C41.2132 21.0875 39.3709 21.5048 37.2456 21.5048ZM34.8741 16.669H37.0404C38.0764 16.669 38.9606 16.5024 39.693 16.1673C40.4254 15.8321 40.9834 15.2564 41.3691 14.4361C41.7548 13.6157 41.9456 12.4766 41.9456 11.0148C41.9456 9.55288 41.7486 8.41382 41.3588 7.59344C40.967 6.77307 40.3946 6.19737 39.6417 5.86223C38.8888 5.52709 37.9677 5.36055 36.8763 5.36055H34.872V16.671L34.8741 16.669Z" fill="white"/>
<path d="M55.9717 0.524658V21.5048H50.2891V0.524658H55.9717Z" fill="white"/>
<path d="M86.5069 11.4424V21.5048H80.8242V11.4424H86.5069Z" fill="white"/>
<path d="M71.7539 9.00813V0.615234H73.5244V7.54421H77.1145V9.00813H71.7539Z" fill="white"/>
<path d="M79.9406 9.00813H78.043L80.9335 0.615234H83.2148L86.1013 9.00813H84.2036L82.1049 2.53355H82.0393L79.9365 9.00813H79.9406ZM79.8216 5.70813H84.3041V7.09393H79.8216V5.70813Z" fill="white"/>
<path d="M87.1094 9.00813V0.615234H90.4615C91.077 0.615234 91.5919 0.707758 92.0022 0.888692C92.4146 1.07168 92.7243 1.32458 92.9295 1.64944C93.1367 1.9743 93.2393 2.34645 93.2393 2.76589C93.2393 3.0928 93.1736 3.38065 93.0423 3.62738C92.911 3.87411 92.7325 4.07766 92.5048 4.23393C92.2771 4.39019 92.0166 4.50327 91.7252 4.56701V4.64925C92.0432 4.66365 92.3428 4.75411 92.6238 4.92065C92.9028 5.0872 93.1305 5.31953 93.3049 5.61972C93.4793 5.91991 93.5675 6.27561 93.5675 6.68682C93.5675 7.13299 93.4567 7.52981 93.2393 7.87729C93.0197 8.22682 92.6956 8.50028 92.2689 8.70383C91.8401 8.90533 91.3129 9.00607 90.6872 9.00607H87.1094V9.00813ZM88.8798 4.12701H90.1928C90.4349 4.12701 90.6503 4.08383 90.8411 3.99748C91.0318 3.91112 91.1816 3.78981 91.2903 3.6315C91.4011 3.47318 91.4565 3.28402 91.4565 3.06196C91.4565 2.75972 91.3498 2.51505 91.1365 2.32794C90.9231 2.1429 90.6195 2.05037 90.2256 2.05037H88.8798V4.12907V4.12701ZM88.8798 7.55654H90.3241C90.8185 7.55654 91.1775 7.46196 91.4032 7.27075C91.6288 7.07953 91.7417 6.82664 91.7417 6.51C91.7417 6.27766 91.6863 6.07206 91.5734 5.89523C91.4606 5.71841 91.3026 5.5786 91.0975 5.47785C90.8923 5.3771 90.6462 5.3257 90.3631 5.3257H88.8778V7.55449L88.8798 7.55654Z" fill="white"/>
<path d="M99.2618 3.02897C99.229 2.69794 99.0895 2.44093 98.8413 2.25794C98.593 2.07495 98.2566 1.98243 97.8319 1.98243C97.5427 1.98243 97.2986 2.02355 97.0996 2.10374C96.9006 2.18393 96.7488 2.29495 96.6441 2.43682C96.5395 2.57869 96.4862 2.73907 96.4862 2.92C96.48 3.07009 96.5128 3.20168 96.5826 3.31271C96.6523 3.42579 96.7487 3.52037 96.8718 3.60262C96.9949 3.6828 97.1365 3.75271 97.2965 3.81234C97.4565 3.87196 97.6288 3.92131 97.8114 3.96243L98.5643 4.14336C98.9295 4.22561 99.2659 4.33458 99.5696 4.47028C99.8752 4.60804 100.14 4.77458 100.363 4.97402C100.587 5.17346 100.761 5.40785 100.885 5.67925C101.008 5.95065 101.071 6.25906 101.075 6.6086C101.073 7.12262 100.942 7.56673 100.686 7.94299C100.427 8.31925 100.058 8.60916 99.5737 8.81682C99.0895 9.02243 98.5069 9.12729 97.8258 9.12729C97.1447 9.12729 96.5621 9.02243 96.0615 8.81682C95.5609 8.60916 95.1711 8.30075 94.8921 7.89159C94.6131 7.48243 94.4654 6.97663 94.4531 6.37421H96.1661C96.1846 6.65589 96.2666 6.89028 96.4103 7.07738C96.5539 7.26449 96.7467 7.40635 96.9867 7.49888C97.2267 7.5914 97.5016 7.64075 97.8073 7.64075C98.113 7.64075 98.3674 7.59757 98.591 7.50916C98.8126 7.42075 98.9849 7.29944 99.108 7.14523C99.2311 6.98897 99.2926 6.81009 99.2926 6.6086C99.2926 6.41944 99.2372 6.26112 99.1264 6.13364C99.0157 6.00617 98.8556 5.89514 98.6443 5.80467C98.433 5.7142 98.1745 5.63196 97.8689 5.55794L96.958 5.32766C96.2523 5.15495 95.6943 4.88561 95.286 4.51963C94.8778 4.15364 94.6747 3.66019 94.6767 3.03925C94.6747 2.5314 94.8101 2.08729 95.0829 1.70692C95.3578 1.32654 95.7333 1.03047 96.2133 0.818692C96.6934 0.60486 97.2391 0.5 97.8484 0.5C98.4576 0.5 99.0136 0.606916 99.4772 0.818692C99.9429 1.03252 100.304 1.3286 100.562 1.70692C100.821 2.08729 100.954 2.52729 100.963 3.02692H99.2659L99.2618 3.02897Z" fill="white"/>
</g>
</g>
<defs>
<clipPath id="clip0_663_19081">
<rect width="101.139" height="22" fill="white" transform="translate(0 0.5)"/>
</clipPath>
<clipPath id="clip1_663_19081">
<rect width="101.075" height="21.0049" fill="white" transform="translate(0 0.5)"/>
</clipPath>
</defs>
</svg>
